<svg height="46" viewBox="0 0 40 46" width="40" xmlns="http://www.w3.org/2000/svg"><g fill="none" fill-rule="evenodd"><path d="m20 46.037c1.732 0 3.412-6.257 5.015-6.67 8.618-2.227 14.985-10.054 14.985-19.367 0-11.046-8.954-20-20-20s-20 8.954-20 20c0 9.318 6.372 17.147 14.996 19.37 1.6.41 3.276 6.667 5.004 6.667z" fill="#000" fill-rule="nonzero"/><path d="m20 46.037c1.732 0 3.412-6.257 5.015-6.67 8.618-2.227 14.985-10.054 14.985-19.367 0-11.046-8.954-20-20-20s-20 8.954-20 20c0 9.318 6.372 17.147 14.996 19.37 1.6.41 3.276 6.667 5.004 6.667z" fill="#00a862"/><g transform="translate(11 8)"><path d="m17.688 2.35c-.108-.46-.587-1.65-1.5-1.65h-14.378c-.912 0-1.39 1.19-1.503 1.682l-.295 1.634c-.033.188.018.38.14.527.122.146.302.23.493.23h.824l1.158 16.44c.06.962.863 1.715 1.83 1.715h9.09c.967 0 1.77-.753 1.83-1.71l1.156-16.445h.826c.192 0 .372-.084.494-.23s.173-.34.14-.527l-.302-1.666z" fill="#fff" fill-rule="nonzero"/><path d="m5.48026368 17v-1.4853516l.1015625-.1396484c.50358325-.6728549 1.01985413-1.2399065 1.54882813-1.7011719l.7680664-.6791992c1.26530581-1.1171931 1.89794922-2.0968382 1.89794922-2.9389648 0-.98177578-.55858816-1.47265629-1.67578125-1.47265629-.68978209 0-1.48957878.23274507-2.39941406.69824219v-1.37744141c.95638499-.35547052 1.88101767-.53320312 2.77392578-.53320312.99870291 0 1.7984996.23591886 2.3994141.70776367.6009144.47184481.9013671 1.10343029.9013671 1.89477539 0 .54590117-.1459946 1.04312927-.4379882 1.49169927-.2919937.4485699-.8061487.9690725-1.5424805 1.5615234l-.63476563.5078125c-.88444452.710941-1.40917886 1.3710907-1.57421875 1.9804687h4.15136718v1.4853516z" fill="#4a4a4a"/></g></g></svg>