<svg height="46" viewBox="0 0 40 46" width="40" xmlns="http://www.w3.org/2000/svg"><g fill="none" fill-rule="evenodd"><path d="m20 46.037c1.732 0 3.412-6.257 5.015-6.67 8.618-2.227 14.985-10.054 14.985-19.367 0-11.046-8.954-20-20-20s-20 8.954-20 20c0 9.318 6.372 17.147 14.996 19.37 1.6.41 3.276 6.667 5.004 6.667z" fill="#000" fill-rule="nonzero"/><path d="m20 46.037c1.732 0 3.412-6.257 5.015-6.67 8.618-2.227 14.985-10.054 14.985-19.367 0-11.046-8.954-20-20-20s-20 8.954-20 20c0 9.318 6.372 17.147 14.996 19.37 1.6.41 3.276 6.667 5.004 6.667z" fill="#00a862"/><g transform="translate(11 8)"><path d="m17.688 2.35c-.108-.46-.587-1.65-1.5-1.65h-14.378c-.912 0-1.39 1.19-1.503 1.682l-.295 1.634c-.033.188.018.38.14.527.122.146.302.23.493.23h.824l1.158 16.44c.06.962.863 1.715 1.83 1.715h9.09c.967 0 1.77-.753 1.83-1.71l1.156-16.445h.826c.192 0 .372-.084.494-.23s.173-.34.14-.527l-.302-1.666z" fill="#fff" fill-rule="nonzero"/><path d="m5.82938477 16.9301758v-1.4091797c.93099424.3597023 1.69905297.5395508 2.30419922.5395508.56282834 0 1.01456536-.1438788 1.35522461-.4316407.34065926-.2877618.51098633-.6707332.51098633-1.1489257 0-1.2399151-.90770577-1.8598633-2.72314453-1.8598633h-.57763672v-1.1235352l.48876953-.0063476c1.70118038 0 2.55175781-.5564723 2.55175781-1.66943362 0-.85059019-.52473433-1.2758789-1.57421875-1.2758789-.68978209 0-1.42610285.17561673-2.20898437.52685546v-1.28222656c.82519944-.28353006 1.69481965-.42529297 2.60888672-.42529297.96908036 0 1.72761768.19889124 2.27563478.59667969.548017.39778845.8220215.94791315.8220215 1.65039062 0 1.10872948-.6918876 1.89159928-2.07568363 2.34863278 1.58269023.3639341 2.37402343 1.2102799 2.37402343 2.5390625 0 .8421266-.3173796 1.5086239-.9521484 1.9995118-.6347688.4908878-1.49804144.7363281-2.58984378.7363281-.92676244 0-1.79003506-.1015615-2.58984375-.3046875z" fill="#4a4a4a"/></g></g></svg>