<svg height="46" viewBox="0 0 40 46" width="40" xmlns="http://www.w3.org/2000/svg"><g fill="none" fill-rule="evenodd"><path d="m20 46.037c1.732 0 3.412-6.257 5.015-6.67 8.618-2.227 14.985-10.054 14.985-19.367 0-11.046-8.954-20-20-20s-20 8.954-20 20c0 9.318 6.372 17.147 14.996 19.37 1.6.41 3.276 6.667 5.004 6.667z" fill="#000" fill-rule="nonzero"/><path d="m20 46.037c1.732 0 3.412-6.257 5.015-6.67 8.618-2.227 14.985-10.054 14.985-19.367 0-11.046-8.954-20-20-20s-20 8.954-20 20c0 9.318 6.372 17.147 14.996 19.37 1.6.41 3.276 6.667 5.004 6.667z" fill="#00a862"/><g transform="translate(11 8)"><path d="m17.688 2.35c-.108-.46-.587-1.65-1.5-1.65h-14.378c-.912 0-1.39 1.19-1.503 1.682l-.295 1.634c-.033.188.018.38.14.527.122.146.302.23.493.23h.824l1.158 16.44c.06.962.863 1.715 1.83 1.715h9.09c.967 0 1.77-.753 1.83-1.71l1.156-16.445h.826c.192 0 .372-.084.494-.23s.173-.34.14-.527l-.302-1.666z" fill="#fff" fill-rule="nonzero"/><path d="m6.1594629 16.9619141v-1.3647461c.79980869.3089208 1.46630593.4633789 1.99951172.4633789.53743758 0 .96378423-.1597478 1.27905273-.4792481.31526851-.3195003.47290039-.7521945.47290039-1.2980957 0-1.3457098-.96694996-2.0185547-2.9008789-2.0185547-.22851677 0-.45703011.0190428-.68554688.0571289v-4.71630855h5.39550784v1.48535156h-4.02441409l-.09521484 2.02490239c1.35417344 0 2.41104763.2771782 3.17065433.8315429.7596066.5543648 1.1394043 1.3287711 1.1394043 2.3232422 0 .9182989-.3321907 1.6419245-.9965821 2.1708984-.6643913.528974-1.57421294.7934571-2.72949216.7934571-.49088787 0-1.16584857-.0909822-2.02490234-.2729492z" fill="#4a4a4a"/></g></g></svg>