<svg height="46" viewBox="0 0 40 46" width="40" xmlns="http://www.w3.org/2000/svg"><g fill="none" fill-rule="evenodd"><path d="m20 46.037c1.732 0 3.412-6.257 5.015-6.67 8.618-2.227 14.985-10.054 14.985-19.367 0-11.046-8.954-20-20-20s-20 8.954-20 20c0 9.318 6.372 17.147 14.996 19.37 1.6.41 3.276 6.667 5.004 6.667z" fill="#000" fill-rule="nonzero"/><path d="m20 46.037c1.732 0 3.412-6.257 5.015-6.67 8.618-2.227 14.985-10.054 14.985-19.367 0-11.046-8.954-20-20-20s-20 8.954-20 20c0 9.318 6.372 17.147 14.996 19.37 1.6.41 3.276 6.667 5.004 6.667z" fill="#00a862"/><g transform="translate(11 8)"><path d="m17.688 2.35c-.108-.46-.587-1.65-1.5-1.65h-14.378c-.912 0-1.39 1.19-1.503 1.682l-.295 1.634c-.033.188.018.38.14.527.122.146.302.23.493.23h.824l1.158 16.44c.06.962.863 1.715 1.83 1.715h9.09c.967 0 1.77-.753 1.83-1.71l1.156-16.445h.826c.192 0 .372-.084.494-.23s.173-.34.14-.527l-.302-1.666z" fill="#fff" fill-rule="nonzero"/><path d="m7.15604493 12.0170898c.58821909-.710941 1.34146676-1.0664062 2.25976563-1.0664062.83789484 0 1.53189824.2761203 2.08203124.8283691.550133.5522489.8251953 1.2494262.8251953 2.0915528 0 .9860075-.3173796 1.7932097-.9521484 2.4216308s-1.45149242.942627-2.45019533.942627c-1.16797459 0-2.07991209-.4157673-2.73583985-1.2473145-.65592775-.8315471-.98388671-1.9878669-.98388671-3.4689941 0-1.6292399.37345004-2.89558469 1.12036132-3.79907228.74691129-.90348759 1.79532203-1.35522461 3.14526368-1.35522461.63476879 0 1.42187029.11425667 2.36132809.34277344v1.37109375c-.854822-.35970232-1.6207648-.53955078-2.29785153-.53955078-.75325898 0-1.33723751.30468445-1.75195313.9140625-.41471561.60937808-.62207031 1.46418718-.62207031 2.56445308zm3.28808597 2.1645508c0-.6390006-.140705-1.1446921-.4221192-1.5170898-.28141414-.3723977-.66332764-.5585938-1.14575193-.5585938-.46126532 0-.84952641.1692692-1.16479492.5078125-.3152685.3385434-.47290039.7574845-.47290039 1.256836 0 .6559277.15445809 1.1848938.46337891 1.586914.30892081.4020203.71305089.6030274 1.21240234.6030274.46549712 0 .8368313-.1703271 1.11401369-.5109864.2771824-.3406592.4157715-.796628.4157715-1.3679199z" fill="#4a4a4a"/></g></g></svg>