<?xml version="1.0" encoding="UTF-8"?>
<svg width="40px" height="46px" viewBox="0 0 40 46" version="1.1" xmlns="http://www.w3.org/2000/svg" xmlns:xlink="http://www.w3.org/1999/xlink">
    <!-- Generator: Sketch 47.1 (45422) - http://www.bohemiancoding.com/sketch -->
    <title>starbucks-marker</title>
    <desc>Created with Sketch.</desc>
    <defs></defs>
    <g id="Page-1" stroke="none" stroke-width="1" fill="none" fill-rule="evenodd">
        <g id="starbucks-marker">
            <g id="Group">
                <g id="b-link">
                    <g id="b">
                        <g id="path-1-link" fill-rule="nonzero" fill="#000000">
                            <path d="M20,46.037 C21.732,46.037 23.412,39.78 25.015,39.367 C33.633,37.14 40,29.313 40,20 C40,8.954 31.046,0 20,0 C8.954,0 0,8.954 0,20 C0,29.318 6.372,37.147 14.996,39.37 C16.596,39.78 18.272,46.037 20,46.037 Z" id="path-1"></path>
                        </g>
                        <g id="path-1-link" fill="#00A862">
                            <path d="M20,46.037 C21.732,46.037 23.412,39.78 25.015,39.367 C33.633,37.14 40,29.313 40,20 C40,8.954 31.046,0 20,0 C8.954,0 0,8.954 0,20 C0,29.318 6.372,37.147 14.996,39.37 C16.596,39.78 18.272,46.037 20,46.037 Z" id="path-1"></path>
                        </g>
                    </g>
                </g>
            </g>
            <g id="Group" transform="translate(11.000000, 8.000000)">
                <g id="d-link">
                    <path d="M17.688,2.35 C17.58,1.89 17.101,0.7 16.188,0.7 L1.81,0.7 C0.898,0.7 0.42,1.89 0.307,2.382 L0.012,4.016 C-0.021,4.204 0.03,4.396 0.152,4.543 C0.274,4.689 0.454,4.773 0.645,4.773 L1.469,4.773 L2.627,21.213 C2.687,22.175 3.49,22.928 4.457,22.928 L13.547,22.928 C14.514,22.928 15.317,22.175 15.377,21.218 L16.533,4.773 L17.359,4.773 C17.551,4.773 17.731,4.689 17.853,4.543 C17.975,4.397 18.026,4.203 17.993,4.016 L17.691,2.35 L17.688,2.35 Z" id="d" fill="#FFFFFF" fill-rule="nonzero"></path>
                    <path d="M6.49588868,17 C6.58475631,16.2932907 6.75931511,15.6733425 7.01957032,15.1401367 C7.27982553,14.6069309 7.864862,13.6759507 8.77469727,12.347168 L10.9836816,9.12890625 L6.09598634,9.12890625 L6.09598634,7.60546875 L12.5198145,7.60546875 L12.5198145,9.12890625 C11.288363,10.6819739 10.3235289,12.1556734 9.62528321,13.5500488 C8.92703753,14.9444243 8.57791993,16.0943965 8.57791993,17 L6.49588868,17 Z" id="7" fill="#4A4A4A"></path>
                </g>
            </g>
        </g>
    </g>
</svg>