<svg height="46" viewBox="0 0 40 46" width="40" xmlns="http://www.w3.org/2000/svg"><g fill="none" fill-rule="evenodd"><path d="m20 46.037c1.732 0 3.412-6.257 5.015-6.67 8.618-2.227 14.985-10.054 14.985-19.367 0-11.046-8.954-20-20-20s-20 8.954-20 20c0 9.318 6.372 17.147 14.996 19.37 1.6.41 3.276 6.667 5.004 6.667z" fill="#000" fill-rule="nonzero"/><path d="m20 46.037c1.732 0 3.412-6.257 5.015-6.67 8.618-2.227 14.985-10.054 14.985-19.367 0-11.046-8.954-20-20-20s-20 8.954-20 20c0 9.318 6.372 17.147 14.996 19.37 1.6.41 3.276 6.667 5.004 6.667z" fill="#00a862"/><g transform="translate(11 8)"><path d="m17.688 2.35c-.108-.46-.587-1.65-1.5-1.65h-14.378c-.912 0-1.39 1.19-1.503 1.682l-.295 1.634c-.033.188.018.38.14.527.122.146.302.23.493.23h.824l1.158 16.44c.06.962.863 1.715 1.83 1.715h9.09c.967 0 1.77-.753 1.83-1.71l1.156-16.445h.826c.192 0 .372-.084.494-.23s.173-.34.14-.527l-.302-1.666z" fill="#fff" fill-rule="nonzero"/><path d="m7.32743165 11.9663086c-.90560349-.5966827-1.35839844-1.3160765-1.35839844-2.15820313 0-.72786822.28564168-1.31713642.8569336-1.76782227.57129191-.45068584 1.32030786-.67602539 2.24707031-.67602539.87174915 0 1.56892638.19254365 2.09155278.57763672.5226263.38509307.7839355.89924809.7839355 1.54248047 0 .8294312-.5289661 1.6144169-1.5869141 2.3549805 1.3372463.6982456 2.0058594 1.5763293 2.0058594 2.6342773 0 .8251995-.3258431 1.4916967-.9775391 1.9995117-.6516959.5078151-1.50650508.7617188-2.56445308.7617188-1.01139828 0-1.82706395-.2327451-2.44702148-.6982422s-.92993164-1.0790978-.92993164-1.8408203c0-1.1044977.62629582-2.0143194 1.87890625-2.7294922zm2.05664062-.6601563c.62630523-.486656.93945313-1.0071586.93945313-1.56152339 0-.36393412-.1290677-.65486545-.38720703-.87280274-.25813931-.21793729-.59879346-.32690429-1.02197266-.32690429-.39355665 0-.71199422.09521389-.95532226.28564453s-.36499024.44010262-.36499024.74902343c0 .30468903.12060426.57234586.36181641.80297856.24121214.2306326.7172816.5384909 1.42822265.9235839zm-1.12988281 1.2885743c-.68131851.5670601-1.02197265 1.1658497-1.02197265 1.7963867 0 .4908879.17032707.8950179.51098632 1.2124023.34065926.3173844.7733535.4760742 1.29809571.4760742.46126532 0 .84741055-.1248359 1.15844726-.3745117.3110367-.2496757.4665527-.5607077.4665527-.9331054 0-.3216162-.1047352-.5966786-.3142089-.8251954-.2094738-.2285167-.61677762-.5141584-1.22192388-.8569335z" fill="#4a4a4a"/></g></g></svg>