<svg height="46" viewBox="0 0 40 46" width="40" xmlns="http://www.w3.org/2000/svg"><g fill="none" fill-rule="evenodd"><path d="m20 46.037c1.732 0 3.412-6.257 5.015-6.67 8.618-2.227 14.985-10.054 14.985-19.367 0-11.046-8.954-20-20-20s-20 8.954-20 20c0 9.318 6.372 17.147 14.996 19.37 1.6.41 3.276 6.667 5.004 6.667z" fill="#000" fill-rule="nonzero"/><path d="m20 46.037c1.732 0 3.412-6.257 5.015-6.67 8.618-2.227 14.985-10.054 14.985-19.367 0-11.046-8.954-20-20-20s-20 8.954-20 20c0 9.318 6.372 17.147 14.996 19.37 1.6.41 3.276 6.667 5.004 6.667z" fill="#00a862"/><g transform="translate(11 8)"><path d="m17.688 2.35c-.108-.46-.587-1.65-1.5-1.65h-14.378c-.912 0-1.39 1.19-1.503 1.682l-.295 1.634c-.033.188.018.38.14.527.122.146.302.23.493.23h.824l1.158 16.44c.06.962.863 1.715 1.83 1.715h9.09c.967 0 1.77-.753 1.83-1.71l1.156-16.445h.826c.192 0 .372-.084.494-.23s.173-.34.14-.527l-.302-1.666z" fill="#fff" fill-rule="nonzero"/><path d="m5.86747071 16.9301758v-1.3583985c.79980869.325848 1.54670877.4887696 2.24072266.4887696.7405636 0 1.32560006-.3078583 1.75512695-.923584.42952688-.6157257.64428708-1.4546659.64428708-2.5168457-.59668264.7151728-1.3330034 1.0727539-2.20898434 1.0727539-.82519944 0-1.51920292-.2856417-2.08203125-.8569336-.56282834-.5712919-.84423829-1.2758747-.84423829-2.1137695 0-.97754398.31843757-1.78051447.95532227-2.40893558.63688469-.62842111 1.4504345-.94262695 2.44067383-.94262695 1.159511 0 2.06827468.41259353 2.72631838 1.23779297.6580436.82519944.9870605 1.96353436.9870605 3.41503906 0 1.6250081-.3872031 2.8998163-1.1616211 3.8244629-.7744179.9246465-1.84292935 1.3869629-3.20556638 1.3869629-.5797555 0-1.32877145-.1015615-2.24707031-.3046875zm1.38378906-6.5c0 .6516959.14070498 1.165851.42211914 1.5424804.28141417.3766295.66332767.5649415 1.14575196.5649415.45703353 0 .84212083-.171385 1.15527344-.5141602.31315259-.3427752.46972659-.7638321.46972659-1.2631836 0-.6643913-.1534002-1.19970499-.46020511-1.60595702-.30680492-.40625204-.70987706-.609375-1.20922852-.609375-.46549712 0-.83577336.16926914-1.11083984.5078125-.27506648.33854335-.41259766.7976859-.41259766 1.37744142z" fill="#4a4a4a"/></g></g></svg>