<svg height="75" viewBox="0 0 65 75" width="65" xmlns="http://www.w3.org/2000/svg" xmlns:xlink="http://www.w3.org/1999/xlink"><defs><path id="a" d="m30.5 70.3634348c2.6413 0 5.2033-9.5632646 7.647875-10.1944981 13.14245-3.4037702 22.852125-15.3666393 22.852125-29.6007264 0-16.8828226-13.65485-30.5682103-30.5-30.5682103s-30.5 13.6853877-30.5 30.5682103c0 14.2417291 9.7173 26.207655 22.8689 29.6053116 2.44.6266483 4.9959 10.1899129 7.6311 10.1899129z"/><filter id="b" height="111.4%" width="113.1%" x="-6.6%" y="-2.8%"><feOffset dx="0" dy="2" in="SourceAlpha" result="shadowOffsetOuter1"/><feGaussianBlur in="shadowOffsetOuter1" result="shadowBlurOuter1" stdDeviation="1"/><feColorMatrix in="shadowBlurOuter1" type="matrix" values="0 0 0 0 0   0 0 0 0 0   0 0 0 0 0  0 0 0 0.196076766 0"/></filter></defs><g fill="none"><g transform="translate(2)"><use fill="#000" filter="url(#b)" xlink:href="#a"/><use fill="#fff" fill-rule="evenodd" xlink:href="#a"/></g><path d="m26.8331889 2.72937434c-.1638391-.69658537-.8904954-2.49862142-2.2755418-2.49862142h-21.81182667c-1.38352941 0-2.10866873 1.80203605-2.28009288 2.54707953l-.44752322 2.47439236c-.05006192.28469141.02730651.57544009.21238391.79804454.1850774.22109014.45814241.34829269.74789473.34829269h1.25003096l1.75671827 24.89535526c.09102167 1.456772 1.30919504 2.5970519 2.77616099 2.5970519h13.78978331c1.4669659 0 2.6851393-1.1402799 2.776161-2.5894803l1.7536842-24.90292686h1.253065c.2912693 0 .5643344-.12720255.7494118-.34829269.1850774-.22109013.2624458-.51486744.2123839-.79804454l-.4581425-2.52285047zm-20.04904029 14.04225236c0-3.8584772 3.16452012-6.99916859 7.05417959-6.99916859 3.8881424 0 7.0511455 3.14220569 7.0511455 7.00068289 0 3.8554486-3.1630031 6.99614-7.0511455 6.99614-3.88965947 0-7.05417959-3.1406914-7.05417959-6.99614z" fill="#00a862" transform="translate(19 13)"/></g></svg>