<?xml version="1.0" encoding="UTF-8"?>
<svg width="96px" height="96px" viewBox="0 0 96 96" version="1.1" xmlns="http://www.w3.org/2000/svg"
     xmlns:xlink="http://www.w3.org/1999/xlink">
    <defs></defs>
    <g id="Page-1" stroke="none" stroke-width="1" fill="none" fill-rule="evenodd">
        <g id="yvesrocher" fill-rule="nonzero">
            <path d="M89.597,48.178 C89.597,71.191 70.932,89.856 47.915,89.856 C24.881,89.856 6.215,71.191 6.215,48.178 C6.215,25.153 24.881,6.487 47.915,6.487 C70.932,6.487 89.597,25.153 89.597,48.178"
                  id="Shape" fill="#FFFFFF"></path>
            <path d="M38.522,80.98 C24.243,76.897 13.799,63.763 13.799,48.178 C13.799,45.628 14.083,43.129 14.618,40.724 L14.746,40.741 C28.086,42.008 38.513,52.805 38.513,67.002 L38.522,80.98 Z M62.245,29.194 C62.96,41.008 56.187,50.315 45.829,55.381 C51.853,65.141 61.435,70.708 73.103,71.173 C66.865,77.998 57.885,82.306 47.915,82.306 C46.958,82.306 46.01,82.255 45.08,82.186 L45.088,54.95 C45.088,43.878 51.181,33.348 62.245,29.194 L62.245,29.194 Z M16.634,34.485 C21.899,22.49 33.946,14.053 47.915,14.053 C55.197,14.053 61.978,16.346 67.52,20.267 C76.292,26.437 82.013,36.64 82.013,48.178 C82.013,54.185 80.462,59.829 77.74,64.728 C68.553,65.607 59.704,62.073 55.205,57.098 C66.95,49.118 70.156,34.554 67.881,20.517 C53.964,24.188 41.452,33.314 39.332,48.411 C34.23,40.897 26.07,35.657 16.634,34.485 L16.634,34.485 Z M0.321,48.178 C0.321,21.895 21.623,0.602 47.915,0.602 C74.197,0.602 95.5,21.895 95.5,48.178 C95.5,74.465 74.197,95.769 47.915,95.769 C21.623,95.769 0.321,74.465 0.321,48.178 L0.321,48.178 Z M47.915,7.676 C25.543,7.676 7.405,25.808 7.405,48.178 C7.405,70.553 25.544,88.684 47.915,88.684 C70.269,88.684 88.407,70.553 88.407,48.178 C88.407,25.808 70.269,7.676 47.915,7.676 L47.915,7.676 Z"
                  id="Shape" fill="#89962B"></path>
        </g>
    </g>
</svg>