<svg xmlns="http://www.w3.org/2000/svg" width="40" height="46" viewBox="0 0 40 46">
  <g fill="none" fill-rule="evenodd">
    <path fill="#000" fill-rule="nonzero" d="M20,46.037 C21.732,46.037 23.412,39.78 25.015,39.367 C33.633,37.14 40,29.313 40,20 C40,8.954 31.046,-3.55271368e-15 20,-3.55271368e-15 C8.954,-3.55271368e-15 0,8.954 0,20 C0,29.318 6.372,37.147 14.996,39.37 C16.596,39.78 18.272,46.037 20,46.037 Z"/>
    <path fill="#FFF" d="M20,46.037 C21.732,46.037 23.412,39.78 25.015,39.367 C33.633,37.14 40,29.313 40,20 C40,8.954 31.046,-3.55271368e-15 20,-3.55271368e-15 C8.954,-3.55271368e-15 0,8.954 0,20 C0,29.318 6.372,37.147 14.996,39.37 C16.596,39.78 18.272,46.037 20,46.037 Z"/>
    <path fill="#1D1D1D" fill-rule="nonzero" d="M15.472,19.623 C15.472,17.075 17.558,15.001 20.122,15.001 C22.685,15.001 24.77,17.076 24.77,19.624 C24.77,22.17 22.685,24.244 20.122,24.244 C17.558,24.244 15.472,22.17 15.472,19.624 L15.472,19.623 Z"/>
    <g fill-rule="nonzero" transform="translate(4 4)">
      <path fill="#FFF" d="M29.8656667,16.0593333 C29.8656667,23.7303333 23.644,29.952 15.9716667,29.952 C8.29366667,29.952 2.07166667,23.7303333 2.07166667,16.0593333 C2.07166667,8.38433333 8.29366667,2.16233333 15.9716667,2.16233333 C23.644,2.16233333 29.8656667,8.38433333 29.8656667,16.0593333"/>
      <path fill="#89962B" d="M12.8406667,26.9933333 C8.081,25.6323333 4.59966667,21.2543333 4.59966667,16.0593333 C4.59966667,15.2093333 4.69433333,14.3763333 4.87266667,13.5746667 L4.91533333,13.5803333 C9.362,14.0026667 12.8376667,17.6016667 12.8376667,22.334 L12.8406667,26.9933333 Z M20.7483333,9.73133333 C20.9866667,13.6693333 18.729,16.7716667 15.2763333,18.4603333 C17.2843333,21.7136667 20.4783333,23.5693333 24.3676667,23.7243333 C22.2883333,25.9993333 19.295,27.4353333 15.9716667,27.4353333 C15.6526667,27.4353333 15.3366667,27.4183333 15.0266667,27.3953333 L15.0293333,18.3166667 C15.0293333,14.626 17.0603333,11.116 20.7483333,9.73133333 L20.7483333,9.73133333 Z M5.54466667,11.495 C7.29966667,7.49666667 11.3153333,4.68433333 15.9716667,4.68433333 C18.399,4.68433333 20.6593333,5.44866667 22.5066667,6.75566667 C25.4306667,8.81233333 27.3376667,12.2133333 27.3376667,16.0593333 C27.3376667,18.0616667 26.8206667,19.943 25.9133333,21.576 C22.851,21.869 19.9013333,20.691 18.4016667,19.0326667 C22.3166667,16.3726667 23.3853333,11.518 22.627,6.839 C17.988,8.06266667 13.8173333,11.1046667 13.1106667,16.137 C11.41,13.6323333 8.69,11.8856667 5.54466667,11.495 L5.54466667,11.495 Z M0.107,16.0593333 C0.107,7.29833333 7.20766667,0.200666667 15.9716667,0.200666667 C24.7323333,0.200666667 31.8333333,7.29833333 31.8333333,16.0593333 C31.8333333,24.8216667 24.7323333,31.923 15.9716667,31.923 C7.20766667,31.923 0.107,24.8216667 0.107,16.0593333 L0.107,16.0593333 Z M15.9716667,2.55866667 C8.51433333,2.55866667 2.46833333,8.60266667 2.46833333,16.0593333 C2.46833333,23.5176667 8.51466667,29.5613333 15.9716667,29.5613333 C23.423,29.5613333 29.469,23.5176667 29.469,16.0593333 C29.469,8.60266667 23.423,2.55866667 15.9716667,2.55866667 L15.9716667,2.55866667 Z"/>
    </g>
  </g>
</svg>
