<svg xmlns="http://www.w3.org/2000/svg" width="38" height="44" viewBox="0 0 38 44">
  <g fill="none" fill-rule="evenodd">
    <path fill="#8B9620" d="M19,44 C20.6454,44 22.2414,38.0198536 23.76425,37.6251276 C31.95135,35.4966657 38,28.0159871 38,19.1150596 C38,8.55781219 29.4937,-3.55271368e-15 19,-3.55271368e-15 C8.5063,-3.55271368e-15 0,8.55781219 0,19.1150596 C0,28.0207659 6.0534,35.503356 14.2462,37.6279949 C15.7662,38.0198536 17.3584,44 19,44 Z"/>
    <g fill="#FCF8F1" fill-rule="nonzero" transform="translate(2 2)">
      <path d="M24.1210557 7.10754545C24.9525726 12.0974318 23.8187573 17.3150235 19.5842243 20.1126576 21.1718798 21.8518548 24.3471906 23.1372119 27.5994501 22.8349135 28.5817236 21.0957163 29.1117273 19.0542207 29.1117273 16.9373468 29.1109421 12.9297339 27.1448248 9.30058284 24.1210557 7.10754545zM5.14221334 14.2904692C4.91529326 15.1227713 4.83991496 16.0296664 4.83991496 16.9373468 4.83991496 22.4572368 8.54444428 27.1448248 13.6866576 28.5817236L13.6866576 23.5918372C13.6104941 18.6003805 9.90596481 14.7443094 5.14221334 14.2904692z"/>
      <path d="M16.2573717,19.5080609 C19.9626862,17.6934853 22.3818585,14.3666327 22.0795601,10.2082632 C18.1481107,11.7205403 15.9550733,15.4250696 15.9550733,19.3573043 L15.9550733,29.0347786 C16.2573717,29.0347786 16.6358336,29.1109421 16.938132,29.1109421 C20.4919047,29.1109421 23.6672155,27.598665 25.9356312,25.1794927 C21.7764765,24.9517874 18.3742456,22.9856701 16.2573717,19.5080609 Z"/>
      <path d="M24.1210557,7.03216716 C24.0448922,7.03216716 24.0448922,6.95600367 23.9695139,6.95600367 C22.0033966,5.59526833 19.5842243,4.76375147 17.0127251,4.76375147 C12.0228387,4.76375147 7.71292742,7.78830572 5.82297361,12.0228387 C9.14982625,12.4766789 12.0990022,14.2912544 13.9135777,16.9373468 C14.6697163,11.5682133 19.1303842,8.31752419 24.1210557,7.03216716 Z"/>
      <path d="M17.0127251,2.00556417e-15 C7.63754912,2.00556417e-15 1.00278209e-14,7.56060044 1.00278209e-14,16.9365616 C1.00278209e-14,26.3117375 7.63676393,33.8739084 17.0127251,33.8739084 C26.3886862,33.8739084 34.0254501,26.3117375 34.0254501,16.9365616 C33.9500718,7.56138563 26.3886862,2.00556417e-15 17.0127251,2.00556417e-15 Z M17.0127251,31.3793578 C8.99828446,31.3793578 2.57071408,24.9517874 2.57071408,16.9373468 C2.57071408,8.99828446 9.07366276,2.49533578 17.0127251,2.49533578 C25.0279509,2.49533578 31.4547361,8.92212097 31.4547361,16.9373468 C31.4547361,24.8764091 24.9525726,31.3793578 17.0127251,31.3793578 Z"/>
    </g>
  </g>
</svg>
